<svg xmlns="http://www.w3.org/2000/svg" viewBox="0 0 128 128">
  <path fill="#9C033A" d="M117.5 33.5l.3-.2c-.6-1.1-1.5-2.1-2.4-2.6L67.1 2.9c-.8-.5-1.9-.7-3.1-.7-1.2 0-2.3.3-3.1.7l-48 27.9c-1.7 1-2.9 3.5-2.9 5.4v55.7c0 1.1.2 2.3.9 3.4l-.2.1c.5.8 1.2 1.5 1.9 1.9l48.2 27.9c.8.5 1.9.7 3.1.7 1.2 0 2.3-.3 3.1-.7l48-27.9c1.7-1 2.9-3.5 2.9-5.4V36.1c.1-.9-.1-1.9-.4-2.6zM64 88.5c-13.5 0-24.5-11-24.5-24.5s11-24.5 24.5-24.5c6.2 0 11.8 2.3 16.1 6.1l-7.8 7.8c-2.2-2.1-5.1-3.4-8.3-3.4-6.8 0-12.3 5.5-12.3 12.3s5.5 12.3 12.3 12.3c5 0 9.3-3 11.3-7.3H64v-10h23.4c.3 1.6.5 3.2.5 4.9-.1 13.5-11.1 24.3-23.9 24.3zm36.5-20.9h-4.5v4.5h-3.2v-4.5h-4.5v-3.2h4.5v-4.5h3.2v4.5h4.5v3.2zm14.5 0h-4.5v4.5h-3.2v-4.5h-4.5v-3.2h4.5v-4.5h3.2v4.5h4.5v3.2z"/>
</svg>
