<svg xmlns="http://www.w3.org/2000/svg" viewBox="0 0 128 128">
  <path fill="#2496ED" d="M124.8 52.1c-2.9-1.9-9.5-2.6-14.6-1.6-.6-5.2-3.9-9.7-9.6-13.8l-3.3-2.1-2.2 3.2c-2.7 4.1-3.5 10.8-3.1 16a22.9 22.9 0 01-9 2.5H1.2c-.7 8.1 2.5 18.4 8 24.9 5.7 6.7 14.2 10.1 25.4 10.1 24.2 0 42.1-11.1 50.5-31.3 3.3.1 10.4.2 14-6.6.2-.3 1.2-2.5 1.2-2.5l-5.5-4.8zM70 55.6H58.8V44.4H70v11.2zm0-14.5H58.8V29.9H70v11.2zm0-14.5H58.8V15.4H70v11.2zM55.3 55.6H44.2V44.4h11.1v11.2zm0-14.5H44.2V29.9h11.1v11.2zM40.7 55.6H29.6V44.4h11.1v11.2zm0-14.5H29.6V29.9h11.1v11.2zM84.6 55.6H73.5V44.4h11.1v11.2z"/>
</svg>
