<svg xmlns="http://www.w3.org/2000/svg" viewBox="0 0 128 128">
  <path fill="#00618A" d="M2 73.5c0 5.5 1.4 9.6 4.1 12.2 2.7 2.6 6.7 3.8 12.1 3.8 3 0 6.1-.4 9.3-1.3 3.2-.9 5.5-1.9 7-3.1V64.6H20.3v8h5.4v7.5c-.7.4-1.6.7-2.7.9-1.1.2-2.3.3-3.5.3-3.2 0-5.5-.9-6.9-2.8-1.4-1.9-2.1-4.8-2.1-8.8v-5.4c0-4.1.7-7 2.2-8.9 1.5-1.9 3.9-2.8 7.3-2.8 1.3 0 2.5.1 3.7.4 1.2.3 2.5.7 3.9 1.4l2.7-7.7c-1.7-.8-3.6-1.4-5.6-1.8-2-.4-4-.6-5.9-.6-6.3 0-11 1.7-14.3 5.1C3.2 62.7 2 67.4 2 73.5zm54.3-28.2c-1.7-.8-3.6-1.4-5.6-1.8-2-.4-4-.6-5.9-.6-6.3 0-11 1.7-14.3 5.1-3.3 3.4-5 8.1-5 14.2 0 5.5 1.4 9.6 4.1 12.2 2.7 2.6 6.7 3.8 12.1 3.8 3 0 6.1-.4 9.3-1.3 3.2-.9 5.5-1.9 7-3.1V64.6H44.8v8h5.4v7.5c-.7.4-1.6.7-2.7.9-1.1.2-2.3.3-3.5.3-3.2 0-5.5-.9-6.9-2.8-1.4-1.9-2.1-4.8-2.1-8.8v-5.4c0-4.1.7-7 2.2-8.9 1.5-1.9 3.9-2.8 7.3-2.8 1.3 0 2.5.1 3.7.4 1.2.3 2.5.7 3.9 1.4l2.2-7.7z"/>
  <path fill="#E48E00" d="M123.3 66.7c-1.1-2.6-2.8-5-4.9-7.1-2.2-2.1-4.7-3.9-7.6-5.4-1.5-.8-2.7-1.7-3.7-2.6-1-.9-1.5-1.9-1.5-2.9 0-1 .4-1.9 1.3-2.6.9-.7 2.1-1.1 3.6-1.1 2 0 4 .2 5.9.6 1.9.4 3.6 1 5 1.7l2.5-7.8c-1.7-.8-3.7-1.5-6-1.9-2.3-.5-4.7-.7-7.1-.7-4.9 0-8.8 1.2-11.8 3.5-3 2.3-4.5 5.5-4.5 9.6 0 2.3.4 4.3 1.3 6.1.9 1.8 2 3.3 3.5 4.6 1.5 1.3 3.1 2.4 4.9 3.4 1.7 1 3.3 1.9 4.7 2.9 1.4 1 2.5 2 3.4 3.1.9 1.1 1.3 2.3 1.3 3.5 0 1.2-.5 2.2-1.5 3-1 .8-2.4 1.2-4.2 1.2-1.9 0-3.9-.3-5.9-1s-3.9-1.6-5.6-2.7l-2.8 8c1.7 1.2 3.8 2.1 6.5 2.8 2.6.7 5.3 1 8 1 5.3 0 9.4-1.3 12.3-3.8 2.9-2.6 4.4-6 4.4-10.4.1-2.5-.4-4.9-1.5-7.4z"/>
  <path fill="#00618A" d="M77.2 45.2H67.9L57.6 89.3h8.6l2.8-14.5h7.4l2.8 14.5h9L77.2 45.2zm-7.4 22.8l1.4-7.4c.3-1.7.7-3.9 1.2-6.8.5-2.9.8-4.6.9-5.2h.2c.1.5.4 2.3.9 5.2.5 2.9.9 5.2 1.2 6.8l1.4 7.4h-7.2z"/>
</svg>
