<svg xmlns="http://www.w3.org/2000/svg" viewBox="0 0 128 128">
  <rect width="128" height="128" rx="16" fill="#10a37f"/>
  <path fill="#fff" d="M103.1 52.6c2.5-7.5.3-15.7-5.6-21a22.1 22.1 0 00-23.3-4.9A22 22 0 0057.8 21c-7.8 0-14.8 4.5-18.4 11.3a22.1 22.1 0 00-14.8 10.7c-3.8 6.9-3.3 15.2 1.4 21.8A21.9 21.9 0 0024.9 75c-2.5 7.5-.3 15.7 5.6 21a22.1 22.1 0 0023.3 4.9A22 22 0 0070.2 107c7.8 0 14.8-4.5 18.4-11.3a22.1 22.1 0 0014.8-10.7c3.8-6.9 3.3-15.2-1.4-21.8a21.9 21.9 0 001.1-10.6zm-38.9 54.6a16.5 16.5 0 01-10.5-3.8c.1-.1.3-.2.5-.3l17.4-10c.9-.5 1.4-1.4 1.4-2.4V64.5l7.3 4.2c.1 0 .1.1.1.2v20.2a16.6 16.6 0 01-16.2 18.1zM22.4 85c-3.3-5.7-4.5-12.3-3.2-18.8.1.1.3.2.5.3l17.4 10c.9.5 2 .5 2.8 0L60.3 64v8.4c0 .1 0 .2-.1.2L42.8 82.9A16.6 16.6 0 0122.4 85zm-4.3-44.8a16.5 16.5 0 018.7-7.3v20.6c0 1 .5 1.9 1.4 2.4l20.3 11.7-7.3 4.2a.3.3 0 01-.2 0L23.5 61.6a16.6 16.6 0 01-5.4-21.4zm60.4 14.2l-20.3-11.7 7.3-4.2a.3.3 0 01.2 0l17.5 10.1a16.5 16.5 0 01-2.5 29.7V57.5c0-1-.5-1.9-1.4-2.4-.1.1-.5-.5-.8-.7zm7.3-11.8c-.1-.1-.3-.2-.5-.3l-17.4-10c-.9-.5-2-.5-2.8 0L44.7 44.6v-8.4c0-.1 0-.2.1-.2L61.3 25.7A16.6 16.6 0 0185.8 43.2v.3l-.1-.9zm-46 19.9l-7.3-4.2a.3.3 0 01-.1-.2V37.9c4-2.3 8.7-3.1 13.2-2.4-.1.1-.3.2-.5.3l-17.4 10c-.9.5-1.4 1.4-1.4 2.4l-.1 14.3zm4 8.5l8.5-4.9 8.5 4.9v9.8l-8.5 4.9-8.5-4.9V71z"/>
</svg>
