<svg xmlns="http://www.w3.org/2000/svg" viewBox="0 0 128 128">
  <path fill="#336791" d="M93.809 92.112c.785-6.533.55-7.492 5.416-6.433l1.235.108c3.742.17 8.637-.602 11.513-1.938 6.191-2.873 9.861-7.668 3.758-6.409-13.924 2.873-14.881-1.842-14.881-1.842 14.703-21.815 20.849-49.508 15.543-56.287-14.47-18.489-39.517-9.746-39.936-9.52l-.134.025c-2.751-.571-5.83-.912-9.289-.968-6.301-.104-11.082 1.652-14.709 4.402 0 0-44.682-18.427-42.604 23.144.442 8.841 12.672 66.898 27.26 49.386 5.332-6.411 10.483-11.824 10.483-11.824 2.559 1.72 5.619 2.6 8.833 2.285l.248-.206c-.078.796-.044 1.575.099 2.497-3.757 4.199-2.653 4.936-10.172 6.486-7.611 1.566-3.143 4.351-.221 5.079 3.535.884 11.712 2.136 17.238-5.598l-.22.882c1.474 1.18 1.375 8.477 1.583 13.69.209 5.213.665 10.006 1.899 12.861 1.235 2.853 2.68 10.185 14.09 8.087 9.553-1.764 14.506-6.33 15.181-13.958z"/>
  <path fill="#fff" d="M85.589 68.141c-.904 8.162-.682 9.355 6.742 8.031l1.538.136c4.661.212 10.757-.75 14.336-2.413 7.713-3.581 12.286-9.561 4.682-7.993-17.35 3.58-18.544-2.295-18.544-2.295 18.32-27.189 25.991-61.705 19.368-70.17C95.231 -8.94 64.673 1.874 64.177 2.15l-.166.031c-3.428-.712-7.265-1.137-11.578-1.207-7.852-.13-13.812 2.059-18.338 5.487 0 0-55.68-22.974-53.124 28.847.552 11.023 15.797 83.396 33.983 61.574 6.647-7.993 13.063-14.742 13.063-14.742 3.189 2.144 7.003 3.241 11.009 2.848l.309-.257c-.098.992-.056 1.965.124 3.115-4.682 5.234-3.307 6.153-12.68 8.086-9.487 1.952-3.919 5.423-.276 6.33 4.406 1.102 14.597 2.663 21.483-6.979l-.274 1.099c1.837 1.471 1.714 10.566 1.974 17.069.261 6.502.829 12.471 2.368 16.029 1.539 3.557 3.34 12.697 17.568 10.08 11.909-2.198 18.087-7.888 18.93-17.396z"/>
  <path fill="#336791" d="M68.189 74.727c-.735 6.63.414 13.38 1.069 16.872.655 3.492 1.748 11.382 13.141 9.329 10.188-1.88 13.869-6.185 14.492-12.977.438-4.854-1.107-12.851-1.846-18.978"/>
  <path fill="#336791" d="M58.87 46.086c-.06 4.109.205 14.437 3.007 17.226 2.802 2.79 2.617 5.297 13.565 4.78 10.948-.517 17.038-2.958 17.038-2.958"/>
</svg>
