<svg xmlns="http://www.w3.org/2000/svg" viewBox="0 0 128 128">
  <rect width="128" height="128" rx="16" fill="#FF6600"/>
  <path fill="#fff" d="M53.4 24h21.2c2.7 0 4.9 2.2 4.9 4.9v21.2c0 2.7-2.2 4.9-4.9 4.9H53.4c-2.7 0-4.9-2.2-4.9-4.9V28.9c0-2.7 2.2-4.9 4.9-4.9z"/>
  <path fill="#fff" d="M24 53.4h21.2c2.7 0 4.9 2.2 4.9 4.9v21.2c0 2.7-2.2 4.9-4.9 4.9H24c-2.7 0-4.9-2.2-4.9-4.9V58.3c0-2.7 2.2-4.9 4.9-4.9z"/>
  <path fill="#fff" d="M82.8 53.4h21.2c2.7 0 4.9 2.2 4.9 4.9v21.2c0 2.7-2.2 4.9-4.9 4.9H82.8c-2.7 0-4.9-2.2-4.9-4.9V58.3c0-2.7 2.2-4.9 4.9-4.9z"/>
  <path fill="#fff" d="M53.4 82.8h21.2c2.7 0 4.9 2.2 4.9 4.9V109c0 2.7-2.2 4.9-4.9 4.9H53.4c-2.7 0-4.9-2.2-4.9-4.9V87.7c0-2.7 2.2-4.9 4.9-4.9z"/>
  <circle cx="78.9" cy="37.9" r="5.5" fill="#FF6600"/>
</svg>
