<svg xmlns="http://www.w3.org/2000/svg" viewBox="0 0 128 128">
  <path fill="#D82C20" d="M121.8 93.1c-6.7 3.5-41.4 17.7-48.8 21.6-7.4 3.9-11.5 3.8-17.3 1S13.3 99.1 6.7 95.7C3.4 94 1.8 92.4 1.8 90.9V78.5s47.6-10.4 55.4-13.2c7.7-2.8 10.4-2.9 17-.5s43.8 9 50 11.4v12.1c0 1.5-1.4 3.1-2.4 4.8z"/>
  <path fill="#A41E11" d="M121.8 80.9c-6.7 3.5-41.4 17.7-48.8 21.6-7.4 3.9-11.5 3.8-17.3 1S13.3 86.9 6.7 83.5c-6.6-3.4-6.7-5.7-.2-8.4 6.5-2.7 41.2-16.2 48.9-19 7.7-2.8 10.4-2.9 17-.5s42.1 12.5 48.3 14.9c6.2 2.5 7.8 6 1.1 10.4z"/>
  <path fill="#D82C20" d="M121.8 72.7c-6.7 3.5-41.4 17.7-48.8 21.6-7.4 3.9-11.5 3.8-17.3 1S13.3 78.7 6.7 75.3C3.4 73.6 1.8 72 1.8 70.5V58.1s47.6-10.4 55.4-13.2c7.7-2.8 10.4-2.9 17-.5s43.8 9 50 11.4v12.1c0 1.5-1.4 3.1-2.4 4.8z"/>
  <path fill="#A41E11" d="M121.8 60.5c-6.7 3.5-41.4 17.7-48.8 21.6-7.4 3.9-11.5 3.8-17.3 1S13.3 66.5 6.7 63.1C.1 59.7 0 57.4 6.5 54.7c6.5-2.7 41.2-16.2 48.9-19 7.7-2.8 10.4-2.9 17-.5s42.1 12.5 48.3 14.9c6.2 2.5 7.8 6 1.1 10.4z"/>
  <path fill="#D82C20" d="M121.8 52.3c-6.7 3.5-41.4 17.7-48.8 21.6-7.4 3.9-11.5 3.8-17.3 1S13.3 58.3 6.7 54.9C3.4 53.2 1.8 51.6 1.8 50.1V37.7s47.6-10.4 55.4-13.2c7.7-2.8 10.4-2.9 17-.5s43.8 9 50 11.4v12.1c0 1.5-1.4 3.1-2.4 4.8z"/>
  <path fill="#A41E11" d="M121.8 40.1C115.1 43.6 80.4 57.8 73 61.7c-7.4 3.9-11.5 3.8-17.3 1S13.3 46.1 6.7 42.7C.1 39.3 0 37 6.5 34.3c6.5-2.7 41.2-16.2 48.9-19 7.7-2.8 10.4-2.9 17-.5s42.1 12.5 48.3 14.9c6.2 2.4 7.8 5.9 1.1 10.4z"/>
  <path fill="#fff" d="M80.4 26.1l-10.8 2-4.4-8.2-2 9-9.4 1.5 7.4 5.3-2.5 8.5 7.8-5 7.8 4.5-1.5-8.8z"/>
  <ellipse fill="#fff" cx="38.5" cy="35.6" rx="13.5" ry="5.1"/>
</svg>
